<?xml version="1.0" encoding="utf-8"?>
<svg xmlns="http://www.w3.org/2000/svg"
	xmlns:xlink="http://www.w3.org/1999/xlink"
	width="51px" height="32px" viewBox="0 0 51 32">
<path fillRule="evenodd" d="M 48.87 0.09C 48.87 0.09 48.87 0.01 48.87 0.01 48.87 0.01 48.87 0.09 48.87 0.09 48.87 0.09 48.78 0.09 48.78 0.09 48.78 0.09 48.78 0.09 48.78 0.09 48.78 0.09 2.28 0.1 2.28 0.1 2.22 0.09 2.17 0.09 2.11 0.09 0.94 0.09-0.01 1.11-0.01 2.36-0.01 2.36-0.01 29.73-0.01 29.73-0.01 30.99 0.94 32 2.1 32 2.1 32 48.88 32 48.88 32 50.04 32 50.99 30.99 50.99 29.73 50.99 29.73 50.99 2.36 50.99 2.36 50.99 1.11 50.04 0.09 48.87 0.09ZM 46.14 1.71C 46.14 1.71 25.86 17.77 25.86 17.77 25.75 17.85 25.63 17.9 25.49 17.9 25.36 17.9 25.23 17.85 25.12 17.77 25.12 17.77 4.84 1.71 4.84 1.71 4.84 1.71 46.14 1.71 46.14 1.71ZM 1.49 29.42C 1.49 29.42 1.49 2.36 1.49 2.36 1.49 1.91 1.85 1.71 2.11 1.71 2.24 1.71 2.36 1.76 2.47 1.84 2.47 1.84 17.91 14.06 17.91 14.06 17.91 14.06 17.84 14.13 17.84 14.13 17.84 14.13 1.49 29.42 1.49 29.42ZM 2.75 30.38C 2.75 30.38 19.15 15.05 19.15 15.05 19.15 15.05 19.21 15.09 19.21 15.09 19.21 15.09 24.24 19.08 24.24 19.08 24.61 19.37 25.04 19.52 25.49 19.52 25.94 19.52 26.38 19.37 26.74 19.08 26.74 19.08 31.84 15.05 31.84 15.05 31.84 15.05 31.89 15.1 31.89 15.1 31.89 15.1 48.23 30.38 48.23 30.38 48.23 30.38 2.75 30.38 2.75 30.38ZM 49.49 29.42C 49.49 29.42 33.08 14.06 33.08 14.06 33.08 14.06 48.51 1.84 48.51 1.84 48.62 1.76 48.74 1.71 48.87 1.71 49.13 1.71 49.49 1.91 49.49 2.36 49.49 2.36 49.49 29.42 49.49 29.42Z" fill="rgb(1,97,149)"/></svg>